<svg width="24" height="24" viewBox="0 0 24 24" fill="none" xmlns="http://www.w3.org/2000/svg">
<path d="M22.0001 5.11V16.47C22.0001 17.92 20.9601 18.53 19.6901 17.83L17.7601 16.75C17.6001 16.66 17.5001 16.49 17.5001 16.31V8.99C17.5001 6.45 15.4301 4.38 12.8901 4.38H8.82008C8.45008 4.38 8.19008 3.99 8.36008 3.67C8.88008 2.68 9.92008 2 11.1101 2H18.8901C20.6001 2 22.0001 3.4 22.0001 5.11Z" fill="#1A5EFF"/>
<path d="M12.89 5.88H5.11C3.4 5.88 2 7.28 2 8.99V20.35C2 21.8 3.04 22.41 4.31 21.71L8.24 19.52C8.66 19.29 9.34 19.29 9.76 19.52L13.69 21.71C14.96 22.41 16 21.8 16 20.35V8.99C16 7.28 14.6 5.88 12.89 5.88ZM11 12.75H9.75V14C9.75 14.41 9.41 14.75 9 14.75C8.59 14.75 8.25 14.41 8.25 14V12.75H7C6.59 12.75 6.25 12.41 6.25 12C6.25 11.59 6.59 11.25 7 11.25H8.25V10C8.25 9.59 8.59 9.25 9 9.25C9.41 9.25 9.75 9.59 9.75 10V11.25H11C11.41 11.25 11.75 11.59 11.75 12C11.75 12.41 11.41 12.75 11 12.75Z" fill="#1A5EFF"/>
</svg>
